<svg width="21" height="21" viewBox="0 0 21 21" fill="none" xmlns="http://www.w3.org/2000/svg">
<path d="M10.041 0.209961C8.7278 0.209961 7.42744 0.468619 6.21418 0.971166C5.00093 1.47371 3.89853 2.21031 2.96995 3.13889C1.09458 5.01426 0.0410156 7.5578 0.0410156 10.21C0.0410156 12.8621 1.09458 15.4057 2.96995 17.281C3.89853 18.2096 5.00093 18.9462 6.21418 19.4488C7.42744 19.9513 8.7278 20.21 10.041 20.21C12.6932 20.21 15.2367 19.1564 17.1121 17.281C18.9874 15.4057 20.041 12.8621 20.041 10.21C20.041 8.89674 19.7824 7.59638 19.2798 6.38313C18.7773 5.16987 18.0407 4.06748 17.1121 3.13889C16.1835 2.21031 15.0811 1.47371 13.8679 0.971166C12.6546 0.468619 11.3542 0.209961 10.041 0.209961ZM5.11102 16.49C5.54102 15.59 8.16102 14.71 10.041 14.71C11.921 14.71 14.541 15.59 14.971 16.49C13.611 17.57 11.901 18.21 10.041 18.21C8.18102 18.21 6.47102 17.57 5.11102 16.49ZM16.401 15.04C14.971 13.3 11.501 12.71 10.041 12.71C8.58102 12.71 5.11102 13.3 3.68102 15.04C2.66102 13.71 2.04102 12.03 2.04102 10.21C2.04102 5.79996 5.63102 2.20996 10.041 2.20996C14.451 2.20996 18.041 5.79996 18.041 10.21C18.041 12.03 17.421 13.71 16.401 15.04ZM10.041 4.20996C8.10102 4.20996 6.54102 5.76996 6.54102 7.70996C6.54102 9.64996 8.10102 11.21 10.041 11.21C11.981 11.21 13.541 9.64996 13.541 7.70996C13.541 5.76996 11.981 4.20996 10.041 4.20996ZM10.041 9.20996C9.64319 9.20996 9.26166 9.05193 8.98036 8.77062C8.69905 8.48932 8.54102 8.10779 8.54102 7.70996C8.54102 7.31214 8.69905 6.9306 8.98036 6.6493C9.26166 6.368 9.64319 6.20996 10.041 6.20996C10.4388 6.20996 10.8204 6.368 11.1017 6.6493C11.383 6.9306 11.541 7.31214 11.541 7.70996C11.541 8.10779 11.383 8.48932 11.1017 8.77062C10.8204 9.05193 10.4388 9.20996 10.041 9.20996Z" fill="white"/>
</svg>
