<svg width="119" height="17" viewBox="0 0 119 17" fill="none" xmlns="http://www.w3.org/2000/svg">
<path d="M0.66105 12.841L0.874733 12.7172L2.23207 11.9314L2.51748 11.7661L2.59942 12.0853L2.59944 12.0854L2.59944 12.0854L2.59948 12.0855L2.59971 12.0864L2.60123 12.0921L2.60825 12.1172C2.61474 12.1398 2.62488 12.174 2.63899 12.218C2.66723 12.3061 2.71125 12.4335 2.77346 12.5869C2.89818 12.8945 3.09444 13.303 3.38051 13.7099C3.95216 14.5231 4.86539 15.3097 6.27882 15.3097C8.15925 15.3097 9.51559 14.1412 9.51559 12.6548C9.51559 11.7451 8.96103 11.0591 8.14082 10.4976C7.37298 9.97182 6.41831 9.58689 5.58322 9.25019C5.52389 9.22626 5.46515 9.20258 5.40713 9.17911L0.66105 12.841ZM0.66105 12.841L0.78211 13.0562C1.41166 14.1753 3.03884 16.0133 6.25027 16.0133C8.75857 16.0133 11.3548 14.3908 11.3548 11.6251C11.3548 10.3663 10.768 9.49038 9.8998 8.82399C9.04595 8.16862 7.9047 7.70405 6.76788 7.25359L0.66105 12.841Z" fill="white" stroke="white" stroke-width="0.5"/>
<path d="M18.3988 13.8679L18.628 13.9677L18.7172 13.7627L18.5235 13.6512L18.4807 13.6266L18.2783 13.5101L18.1483 13.7041C18.029 13.8821 17.878 14.0362 17.7217 14.1476C17.563 14.2607 17.4135 14.3195 17.2973 14.3299C17.1905 14.3394 17.1201 14.3097 17.0675 14.2453C17.0052 14.1691 16.9398 14.0089 16.9398 13.7019V6.19157H18.3677H18.6177V5.94157V5.66664V5.41664H18.3677H16.9437V3.24023L16.4634 3.14436C16.4629 3.14416 16.4629 3.14415 16.4629 3.14414L16.4629 3.14426L16.4626 3.14486L16.4609 3.14888L16.4531 3.16671C16.4461 3.18279 16.4352 3.20707 16.4205 3.23836C16.3912 3.30098 16.3469 3.39148 16.2881 3.50054C16.1702 3.71925 15.9957 4.00951 15.7688 4.29836C15.3069 4.88638 14.671 5.41534 13.8921 5.41534H13.6421V5.66534V5.94027V6.19027H13.8921H14.9047V12.8979C14.9047 12.9411 14.904 12.9926 14.9032 13.0507C14.899 13.3701 14.8921 13.8921 14.981 14.3783C15.0827 14.9347 15.3365 15.5867 16.009 15.7356C16.8838 15.9296 17.5534 15.4427 17.9748 14.9695C18.1885 14.7296 18.3507 14.4807 18.4592 14.2931C18.5137 14.1989 18.5552 14.1191 18.5834 14.0622C18.5975 14.0337 18.6083 14.0109 18.6158 13.9948L18.6244 13.9758L18.6269 13.9704L18.6276 13.9687L18.6279 13.9681L18.628 13.9678C18.628 13.9678 18.628 13.9677 18.3988 13.8679Z" fill="white" stroke="white" stroke-width="0.5"/>
<path d="M31.0625 15.7722L31.0869 15.2796C31.0876 15.2734 31.0877 15.2734 31.0877 15.2734L31.0882 15.2735L31.0892 15.2736L31.0908 15.2738L31.093 15.274C31.094 15.2742 31.094 15.2742 31.0933 15.2741C31.0918 15.2738 31.0869 15.2729 31.0791 15.2709C31.0636 15.2669 31.0366 15.2585 31.0016 15.242C30.9326 15.2094 30.8285 15.1435 30.7188 15.0103C30.4994 14.744 30.2374 14.1823 30.2342 13.0176C30.2342 13.0175 30.2342 13.0174 30.2342 13.0173L30.2342 9.07552C30.2342 7.92352 29.9484 6.96512 29.3149 6.29429C28.6789 5.62089 27.7307 5.27734 26.4922 5.27734C25.5311 5.27734 24.6513 5.56191 23.9455 5.92994C23.2425 6.29649 22.6958 6.75445 22.4038 7.12102L22.4038 7.12102L22.4031 7.12186C21.9962 7.63712 21.9792 8.15963 22.281 8.49943C22.562 8.81573 23.0592 8.88486 23.4476 8.62271C23.7309 8.43214 23.962 8.15917 24.1696 7.8807C24.2567 7.7639 24.3428 7.64177 24.4275 7.52146C24.4445 7.49743 24.4613 7.47348 24.4782 7.44965C24.5803 7.30498 24.6818 7.16325 24.788 7.0276C25.2119 6.48626 25.6815 6.07951 26.4312 6.07951C27.0316 6.07951 27.4667 6.35683 27.7604 6.77471C28.0597 7.20061 28.2121 7.77571 28.2121 8.3428V9.01539C28.1827 9.01962 28.1507 9.02422 28.1166 9.02918C27.9261 9.05681 27.6654 9.0954 27.3841 9.13926C26.827 9.22616 26.1727 9.33622 25.8342 9.4235L25.8335 9.4237C24.9846 9.6453 23.8484 9.95604 22.9238 10.5066C21.9935 11.0605 21.2346 11.885 21.2346 13.136C21.2346 13.9756 21.597 14.6428 22.1617 15.0947C22.7211 15.5424 23.4694 15.7722 24.246 15.7722C26.0649 15.7722 27.188 14.9611 27.8501 14.1441C27.9942 13.9664 28.1161 13.7888 28.2188 13.6198C28.2363 14.1795 28.4036 14.7006 28.722 15.0934C29.0636 15.5148 29.5671 15.7722 30.1944 15.7722H31.0625ZM23.2178 12.7231V12.5848C23.2178 11.5267 23.9471 10.8846 25.0253 10.4622C26.0103 10.0762 27.2136 9.90576 28.2172 9.77502V11.039C28.2078 12.0186 27.8819 12.8321 27.327 13.3995C26.7727 13.9661 25.9718 14.306 24.9753 14.306C24.4634 14.306 24.025 14.1492 23.7173 13.8667C23.4374 13.6098 23.247 13.2321 23.2178 12.7231Z" fill="white" stroke="white" stroke-width="0.5"/>
<path d="M39.8354 2.97352L39.8354 2.97317C39.8339 1.89169 38.8144 0.841797 37.3249 0.841797C36.4646 0.841797 35.7532 1.13134 35.2591 1.67796C34.7681 2.22135 34.5172 2.99047 34.5172 3.90466V4.81404H33.624H33.374V5.06404V5.34027V5.59027H33.624H34.5172V13.2757C34.5172 14.0845 34.4663 14.5613 34.3598 14.853C34.3089 14.9923 34.2487 15.0794 34.1827 15.1396C34.1162 15.2002 34.0297 15.2467 33.9064 15.2837L33.9783 15.7731H37.0926L37.1605 15.2825C37.0327 15.2464 36.945 15.2004 36.8789 15.1408C36.8135 15.0817 36.7541 14.9958 36.7044 14.8566C36.5999 14.5641 36.5537 14.0862 36.5537 13.2757V5.59157H38.3384H38.5884V5.34157V5.06534V4.81534H38.3384H36.5423C36.5249 4.48113 36.4712 4.23821 36.3894 4.02314C36.34 3.89334 36.2824 3.77882 36.2237 3.66817C36.2068 3.63626 36.19 3.6051 36.1733 3.57397C36.1306 3.49468 36.088 3.41551 36.0431 3.32452C35.8485 2.91857 35.8696 2.46099 36.073 2.10938C36.2723 1.76495 36.6588 1.50131 37.2457 1.50131C37.6636 1.50131 37.9261 1.63089 38.0925 1.84131C38.2677 2.06286 38.37 2.41569 38.37 2.92554C38.37 3.16722 38.451 3.36913 38.6036 3.50642C38.7523 3.64024 38.9419 3.68818 39.1156 3.6792C39.4434 3.66224 39.8354 3.41962 39.8354 2.97352Z" fill="white" stroke="white" stroke-width="0.5"/>
<path d="M40.7409 3.90466V4.81404H39.8477H39.5977V5.06404V5.34027V5.59027H39.8477H40.7422V13.2757C40.7422 14.0844 40.6912 14.5614 40.5849 14.8531C40.5341 14.9925 40.4739 15.0795 40.408 15.1397C40.3417 15.2003 40.2554 15.2467 40.1325 15.2837L40.2045 15.7731H43.3189L43.3869 15.2826C43.2594 15.2465 43.172 15.2005 43.1061 15.1409C43.0407 15.0819 42.9815 14.996 42.9318 14.8567C42.8274 14.5641 42.7812 14.0862 42.7812 13.2757V5.59157H44.5659H44.8159V5.34157V5.06534V4.81534H44.5659H42.7711C42.7536 4.48098 42.6996 4.23797 42.6175 4.02285C42.5679 3.89307 42.5101 3.77856 42.4513 3.66797C42.4347 3.63672 42.4183 3.60617 42.4018 3.57565C42.3588 3.49574 42.3158 3.41601 42.2706 3.32438C42.0753 2.91842 42.0962 2.4609 42.2996 2.10938C42.4988 1.76505 42.8855 1.50131 43.4733 1.50131C43.8904 1.50131 44.1529 1.63083 44.3196 1.84138C44.4949 2.06298 44.5975 2.41584 44.5975 2.92554C44.5975 3.16711 44.6784 3.36899 44.8308 3.50631C44.9794 3.64019 45.1689 3.68818 45.3425 3.67919C45.6703 3.66222 46.0616 3.41935 46.0616 2.97352C46.0616 1.8913 45.0401 0.841797 43.5485 0.841797C42.6883 0.841797 41.9768 1.13134 41.4828 1.67796C40.9917 2.22135 40.7409 2.99047 40.7409 3.90466Z" fill="white" stroke="white" stroke-width="0.5"/>
<path d="M86.3422 1.90046H86.4815V13.4627C86.4769 14.2631 86.4216 14.7532 86.3092 15.0602C86.255 15.2081 86.1908 15.3038 86.1202 15.3704C86.0498 15.4368 85.9603 15.4864 85.837 15.5233L85.9088 16.0128H89.2424L89.3137 15.5231C89.1848 15.4848 89.0931 15.4353 89.0221 15.3699C88.9514 15.3046 88.8873 15.2104 88.8334 15.0615C88.7213 14.751 88.6684 14.2474 88.6684 13.4038V1.90046H88.8077C89.8189 1.90046 90.856 2.17121 91.6484 2.44742C92.0428 2.58492 92.3729 2.72242 92.6038 2.82531C92.7192 2.87673 92.8096 2.91943 92.8708 2.94905C92.9014 2.96386 92.9247 2.9754 92.9401 2.98312L92.9572 2.99176L92.9612 2.9938L92.962 2.99423L92.9621 2.99425L92.9621 2.99429L92.9621 2.99429L93.327 3.18316V2.77224V1.3457V1.0957H93.077H82.0717H81.8217V1.3457V2.77224V3.18304L82.1865 2.99432L82.1865 2.99431L82.1865 2.99428L82.1866 2.99426L82.1874 2.99383L82.1914 2.99178L82.2085 2.98314C82.2239 2.97543 82.2472 2.96389 82.2778 2.94908C82.339 2.91945 82.4296 2.87675 82.545 2.82533C82.7761 2.72243 83.1062 2.58493 83.5009 2.44743C84.2936 2.17121 85.3311 1.90046 86.3422 1.90046Z" fill="white" stroke="white" stroke-width="0.5"/>
<path d="M95.8046 8.61855L95.944 8.82606C96.2271 8.63579 96.4582 8.36295 96.6658 8.08461C96.7605 7.95771 96.8461 7.83603 96.9305 7.71604C97.0442 7.55447 97.1557 7.39597 97.2842 7.23192C97.7083 6.69073 98.1782 6.28393 98.928 6.28393C99.5284 6.28393 99.9634 6.56125 100.257 6.97914C100.556 7.40503 100.709 7.98013 100.709 8.54722V9.21868C100.679 9.22292 100.648 9.22755 100.613 9.23254C100.423 9.26028 100.162 9.29904 99.8814 9.34306C99.3245 9.43028 98.6707 9.54066 98.3322 9.62793L98.3315 9.62812C97.4827 9.84972 96.3465 10.1605 95.4218 10.711C94.4915 11.2649 93.7327 12.0894 93.7327 13.3404C93.7327 14.18 94.095 14.8472 94.6595 15.2991C95.2188 15.7468 95.9667 15.9766 96.7428 15.9766C98.5617 15.9766 99.6847 15.1655 100.347 14.3485C100.491 14.1708 100.613 13.9932 100.716 13.8243C100.733 14.384 100.901 14.9052 101.22 15.2979C101.561 15.7192 102.065 15.9766 102.692 15.9766H103.555L103.58 15.484C103.58 15.4778 103.58 15.4778 103.58 15.4778L103.581 15.4779L103.582 15.478L103.584 15.4782L103.586 15.4784C103.587 15.4786 103.587 15.4786 103.586 15.4785C103.584 15.4782 103.579 15.4773 103.572 15.4752C103.556 15.4712 103.529 15.4628 103.494 15.4462C103.424 15.4136 103.32 15.3475 103.21 15.2142C102.99 14.9476 102.728 14.3852 102.728 13.2185V9.27865C102.728 8.12671 102.443 7.16831 101.81 6.49747C101.174 5.82402 100.226 5.48047 98.9877 5.48047C98.0271 5.48047 97.1476 5.76541 96.4418 6.13376C95.7389 6.50064 95.1919 6.95887 94.8994 7.32521L94.8992 7.32542C94.6952 7.58145 94.586 7.83747 94.569 8.08026C94.5518 8.32623 94.631 8.54309 94.7747 8.7038C95.0568 9.01931 95.5556 9.08777 95.9443 8.82588L95.8046 8.61855ZM95.8046 8.61855C95.2271 9.00761 94.3694 8.3916 95.0947 7.48121C95.6281 6.81334 97.1645 5.73047 98.9877 5.73047C101.374 5.73047 102.478 7.05066 102.478 9.27865V13.2185C102.478 14.5607 102.815 15.1861 103.112 15.4766L100.481 9.50473C100.765 9.46255 100.959 9.43557 100.959 9.43557V8.54722C100.959 7.33337 100.31 6.03393 98.928 6.03393C97.8104 6.03393 97.2448 6.83621 96.7184 7.58281C96.4301 7.99177 96.1536 8.38402 95.8046 8.61855ZM100.709 9.97925V11.2435C100.699 12.2231 100.374 13.0366 99.8191 13.6039C99.2652 14.1705 98.4646 14.5104 97.4681 14.5104C96.9557 14.5104 96.5169 14.3534 96.209 14.0707C95.9042 13.7908 95.7055 13.368 95.7055 12.7892C95.7055 11.7325 96.4349 11.0901 97.514 10.6671C98.4997 10.2806 99.7041 10.1096 100.709 9.97925Z" fill="white" stroke="white" stroke-width="0.5"/>
<path d="M112.324 3.17731L112.324 3.17695C112.323 2.0964 111.302 1.04688 109.811 1.04688C108.951 1.04688 108.24 1.33642 107.746 1.88304C107.255 2.42643 107.004 3.19554 107.004 4.10974V5.01912H106.11H105.86V5.26912V5.54535V5.79535H106.11H107.004V13.4782C107.004 14.2869 106.953 14.7638 106.846 15.0556C106.796 15.195 106.735 15.282 106.67 15.3422C106.603 15.4028 106.517 15.4492 106.394 15.4862L106.466 15.9756H109.58L109.648 15.485C109.52 15.4489 109.433 15.4029 109.367 15.3433C109.301 15.2842 109.242 15.1983 109.192 15.0591C109.088 14.7666 109.041 14.2887 109.041 13.4782V5.79535H110.827H111.077V5.54535V5.26912V5.01912H110.827H109.033C109.015 4.68476 108.961 4.44175 108.879 4.22663C108.829 4.09685 108.772 3.98234 108.713 3.87175C108.696 3.84051 108.68 3.80996 108.663 3.77944C108.62 3.69957 108.577 3.61989 108.532 3.5283C108.337 3.12227 108.358 2.66429 108.562 2.31238C108.761 1.96771 109.147 1.70379 109.735 1.70379C110.152 1.70379 110.414 1.83353 110.581 2.0443C110.756 2.26611 110.859 2.61904 110.859 3.12803C110.859 3.3699 110.94 3.57197 111.092 3.70947C111.241 3.84353 111.431 3.89169 111.604 3.88282C111.932 3.86608 112.324 3.62339 112.324 3.17731Z" fill="white" stroke="white" stroke-width="0.5"/>
<path d="M118.551 3.17731L118.551 3.17695C118.549 2.09676 117.53 1.04688 116.041 1.04688C115.181 1.04688 114.47 1.33642 113.976 1.88304C113.484 2.42643 113.234 3.19554 113.234 4.10974V5.01912H112.34H112.09V5.26912V5.54535V5.79535H112.34H113.234V13.4782C113.234 14.2869 113.183 14.7638 113.076 15.0555C113.025 15.1948 112.965 15.2818 112.899 15.342C112.833 15.4027 112.746 15.4492 112.623 15.4862L112.695 15.9756H115.809L115.877 15.485C115.749 15.4489 115.661 15.4029 115.595 15.3433C115.53 15.2842 115.471 15.1983 115.421 15.0591C115.316 14.7666 115.27 14.2887 115.27 13.4782V5.79535H117.053H117.303V5.54535V5.26912V5.01912H117.053H115.257C115.24 4.68491 115.186 4.44199 115.105 4.22692C115.055 4.09712 114.998 3.9826 114.939 3.87195C114.922 3.84005 114.905 3.8089 114.888 3.77776C114.846 3.69847 114.803 3.6193 114.758 3.5283C114.564 3.12238 114.585 2.66443 114.788 2.31244C114.988 1.96765 115.374 1.70379 115.961 1.70379C116.379 1.70379 116.641 1.83358 116.808 2.04423C116.983 2.26599 117.085 2.61889 117.085 3.12803C117.085 3.3699 117.166 3.57197 117.319 3.70947C117.467 3.84353 117.657 3.89169 117.831 3.88282C118.159 3.86608 118.551 3.62339 118.551 3.17731Z" fill="white" stroke="white" stroke-width="0.5"/>
<path d="M70.3813 10.3912L70.7987 10.2787L73.42 9.57187L73.8388 9.45895L73.7266 9.87794L73.0258 12.4937L72.9138 12.9118L72.6076 12.6058L72.3144 12.3128C72.3073 12.3194 72.3 12.3259 72.2928 12.3325C72.0511 12.5523 71.8003 12.7803 71.5635 13.0169C71.3726 13.2078 70.9855 13.5744 70.5294 13.9509C70.0762 14.325 69.5409 14.7205 69.0559 14.958C67.5751 15.6865 65.8408 15.164 64.8391 14.2945C64.8153 14.3215 64.7891 14.3504 64.7605 14.3809C64.587 14.5655 64.3229 14.8081 63.9545 15.0496C63.2155 15.534 62.0651 16.008 60.4022 16.008C58.0417 16.008 56.5178 14.6696 56.0728 13.2891L70.3813 10.3912ZM70.3813 10.3912L70.6871 10.6969L70.9897 10.9992M70.3813 10.3912L70.9897 10.9992M70.9897 10.9992C70.9425 11.0556 70.8829 11.1242 70.8125 11.2023C70.6295 11.4052 70.3782 11.6672 70.0926 11.9379C69.5115 12.4889 68.8246 13.0407 68.2924 13.2371C68.2924 13.2371 68.2924 13.2371 68.2923 13.2371C68.2918 13.2373 68.287 13.2389 68.2768 13.2414C68.2661 13.244 68.2517 13.247 68.2337 13.2501C68.1974 13.2564 68.1502 13.2626 68.0936 13.2675C67.9803 13.2771 67.8355 13.281 67.6749 13.2718C67.35 13.2534 66.9821 13.1831 66.6814 13.0198L66.6814 13.0198L66.6781 13.0181C66.4667 12.9073 66.2885 12.7445 66.1594 12.5457C66.6804 11.5587 67.067 10.5067 67.3072 9.4157L67.4789 8.63554L66.8931 9.1786L66.0159 9.99173L65.9565 10.0467L65.9407 10.1261C65.7968 10.8458 65.617 11.274 65.4817 11.5157C65.4664 11.543 65.4517 11.5679 65.4376 11.5906L62.2275 7.54282C62.2528 7.53246 62.2792 7.5214 62.3066 7.50965C62.552 7.40433 62.8809 7.24148 63.2116 7.01162C63.868 6.55529 64.5711 5.80439 64.5711 4.68681C64.5711 4.17287 64.3919 3.50239 63.8949 2.95757C63.3918 2.40605 62.5855 2.00781 61.3806 2.00781C59.5729 2.00781 58.4271 3.09086 58.2329 4.45975L58.2329 4.45975L58.2327 4.46114C58.0558 5.75981 58.7636 6.73995 59.2696 7.44077C59.2895 7.46821 59.309 7.49523 59.3281 7.52183C58.803 7.74351 57.8709 8.19369 57.102 8.94428C56.6253 9.40967 56.2045 9.99688 55.9857 10.7233C55.766 11.4522 55.7549 12.3047 56.0728 13.289L70.9897 10.9992ZM61.5037 6.64277C61.5003 6.64473 61.497 6.64666 61.4937 6.64855C61.1771 6.19693 60.6405 5.36597 60.6405 4.46894L60.6405 4.46855C60.6399 4.08487 60.7313 3.70893 60.903 3.43758C61.0698 3.17402 61.3047 3.01618 61.6207 3.01618C61.9329 3.01618 62.1577 3.19307 62.3176 3.48976C62.4808 3.79268 62.5555 4.19067 62.5555 4.53249C62.5555 5.4382 62.2337 5.9853 61.9278 6.3058C61.7726 6.46838 61.618 6.57621 61.5037 6.64277ZM60.0181 8.49586C60.0317 8.4894 60.0447 8.48329 60.0571 8.47753L64.0147 13.3795C63.7987 13.6168 63.5604 13.8732 63.1835 14.0852C62.7268 14.3421 62.0498 14.5387 60.9609 14.4736C60.7183 14.4589 60.3638 14.3423 59.9805 14.1137C59.6014 13.8875 59.2125 13.5625 58.8975 13.1535C58.2738 12.3436 57.9363 11.2035 58.5448 9.80813L58.5448 9.80805C58.7361 9.36891 59.1409 9.01835 59.5249 8.77077C59.7135 8.64919 59.8895 8.55725 60.0181 8.49586Z" fill="white" stroke="white" stroke-width="0.5"/>
</svg>
