<svg width="371" height="126" viewBox="0 0 371 126" fill="none" xmlns="http://www.w3.org/2000/svg">
<g clip-path="url(#clip0_272_549)">
<path d="M25.9262 9.13437L25.9262 9.13431L25.9258 9.13347L25.9241 9.12953L25.9168 9.11272C25.9101 9.0976 25.8999 9.07476 25.8862 9.04471C25.8589 8.9846 25.8175 8.89567 25.7621 8.78203C25.6513 8.55472 25.4845 8.22878 25.2621 7.83712C24.8168 7.05324 24.1499 6.00901 23.2632 4.96596C21.4858 2.87494 18.8553 0.82191 15.3812 0.82191C10.4954 0.82191 5.91696 4.25907 5.91696 9.59992C5.91696 12.5366 7.51668 14.6146 9.83448 16.252C11.9916 17.7759 14.7374 18.8946 17.3276 19.9499C17.5311 20.0328 17.7336 20.1153 17.9348 20.1976C17.9352 20.1977 17.9356 20.1979 17.936 20.1981L25.9262 9.13437ZM25.9262 9.13437L25.9262 9.13443L25.9262 9.13437ZM-0.125444 37.3746L-0.338679 37.4983L29.7758 6.23568C25.6024 1.72948 20.8628 0 16.2542 0C8.70647 0 1.64827 4.79996 1.64827 12.39C1.64827 19.2652 6.50741 21.9899 14.149 25.0333L14.0551 25.265C14.0554 25.2651 14.0556 25.2652 14.0559 25.2653C14.2417 25.3407 14.4303 25.4168 14.6212 25.4939C17.2354 26.5497 20.2892 27.7829 22.7539 29.4737C25.3964 31.2864 27.3096 33.5888 27.3096 36.7126C27.3096 41.7822 22.7059 45.6131 16.597 45.6131C11.9188 45.6131 8.90359 42.9928 7.0461 40.3456C6.11714 39.0217 5.48204 37.6962 5.07921 36.7008C4.87795 36.2035 4.73506 35.7897 4.64271 35.5009C4.59654 35.3566 4.56303 35.2436 4.54119 35.1673C4.53027 35.1291 4.52227 35.1 4.51707 35.0808L4.51135 35.0594L4.51003 35.0544L4.50976 35.0533L4.50973 35.0532L4.50971 35.0532L4.42776 34.7333L4.14211 34.899L-0.125444 37.3746Z" fill="white" stroke="white" stroke-width="0.5"/>
<path d="M54.9324 40.6315L55.0213 40.4267L54.8279 40.3153L54.6933 40.2377L54.4907 40.1209L54.3606 40.3152C53.9505 40.9282 53.4309 41.4609 52.8852 41.8506C52.337 42.242 51.7774 42.4787 51.2874 42.5225C50.8069 42.5655 50.399 42.4249 50.1023 42.061C49.7958 41.6852 49.5799 41.0368 49.5799 40.009V15.8139H54.6051H54.8551V15.5639V14.6979V14.4479H54.6051H49.5921V7.05469L49.1115 6.95892L49.1112 6.95881L49.1112 6.95887L49.1112 6.95893L49.1108 6.95969L49.1094 6.96325L49.1029 6.97845C49.0971 6.99211 49.0882 7.01274 49.0763 7.03987C49.0524 7.09415 49.0164 7.17444 48.9684 7.27702C48.8724 7.48221 48.7287 7.77639 48.5385 8.12985C48.1579 8.83738 47.593 9.77939 46.8555 10.72C45.3725 12.6116 43.2348 14.4438 40.5336 14.4438H40.2836V14.6938V15.5598V15.8098H40.5336H44.2534V37.4762C44.2534 37.6208 44.2512 37.7894 44.2488 37.9776C44.2358 38.9891 44.2155 40.569 44.4844 42.0428C44.7999 43.7725 45.5405 45.4988 47.3051 45.8904C49.773 46.4386 51.6947 45.0787 52.9698 43.6443C53.6104 42.9238 54.0999 42.1721 54.429 41.6019C54.5938 41.3164 54.719 41.0753 54.8032 40.905C54.8453 40.8198 54.8773 40.7523 54.8988 40.7056C54.9096 40.6823 54.9178 40.6642 54.9234 40.6517L54.9299 40.6372L54.9316 40.6332L54.9321 40.6321L54.9323 40.6317C54.9323 40.6316 54.9324 40.6315 54.7031 40.5319L54.9324 40.6315Z" fill="white" stroke="white" stroke-width="0.5"/>
<path d="M94.5186 45.9944L94.5431 45.5016C94.5437 45.4957 94.5438 45.4957 94.5439 45.4957L94.5425 45.4955C94.5392 45.495 94.5328 45.4941 94.5237 45.4925C94.5053 45.4893 94.4758 45.4834 94.4366 45.4733C94.3582 45.4529 94.2414 45.4155 94.0986 45.348C93.8139 45.2135 93.4221 44.958 93.0242 44.474C92.2285 43.506 91.3884 41.5981 91.3783 37.8554V25.4375C91.3783 21.8905 90.4999 19.025 88.6343 17.0458C86.7662 15.064 83.9462 14.0107 80.1493 14.0107C77.2321 14.0107 74.5508 14.8767 72.3899 16.0056C70.2318 17.133 68.5763 18.5314 67.714 19.6159L67.7133 19.6168C66.5358 21.1107 66.5899 22.4541 67.3095 23.2657C68.0084 24.054 69.2708 24.2459 70.2769 23.5655C71.0897 23.018 71.7723 22.219 72.4173 21.3523C72.6864 20.9907 72.952 20.6131 73.2185 20.2341C73.272 20.158 73.3256 20.0818 73.3792 20.0058C73.701 19.5493 74.0265 19.0935 74.3692 18.655C75.7392 16.9021 77.3536 15.4626 79.9575 15.4626C82.0393 15.4626 83.5628 16.4381 84.5748 17.8807C85.5924 19.3313 86.0926 21.2574 86.0926 23.1294V25.7145L86.0445 25.7213C85.8755 25.7452 85.6319 25.7801 85.3332 25.8235C84.7358 25.9103 83.9178 26.0316 83.036 26.1694C81.2776 26.4441 79.2482 26.787 78.2141 27.0542L78.2134 27.0543C75.538 27.7541 72.0369 28.7173 69.2039 30.4073C66.3652 32.1006 64.155 34.5514 64.155 38.2279C64.155 40.7026 65.2149 42.6524 66.8684 43.9781C68.5168 45.2996 70.7452 45.9944 73.087 45.9944C78.6204 45.9944 82.0061 43.5326 84.0023 41.0649C84.9979 39.8341 85.6465 38.6042 86.0464 37.6819C86.0679 37.6322 86.0888 37.5834 86.1089 37.5355V39.4411C86.1089 41.2256 86.6097 42.8608 87.5762 44.0552C88.5472 45.2552 89.9765 45.9944 91.7892 45.9944H94.5186ZM86.0443 27.0376C86.0658 27.0348 86.0874 27.032 86.1089 27.0293V31.6253C86.0785 34.8299 85.0125 37.5332 83.1568 39.434C81.3018 41.334 78.6396 42.451 75.3799 42.451C73.6635 42.451 72.147 41.9235 71.0623 40.9259C70.0272 39.9739 69.3649 38.5754 69.3098 36.7417H69.3183V36.4917C69.3183 32.825 71.8759 30.6655 75.3417 29.3049C78.6883 27.9911 82.8007 27.4581 86.0443 27.0376Z" fill="white" stroke="white" stroke-width="0.5"/>
<path d="M121.565 6.21748V6.21713C121.561 3.15643 118.647 0.0400391 114.208 0.0400391C111.628 0.0400391 109.546 0.906153 108.111 2.49704C106.679 4.08462 105.917 6.36559 105.917 9.15056V12.5526H102.572H102.322V12.8026V13.6727V13.9227H102.572H105.917V38.6693C105.917 41.2151 105.76 42.8046 105.389 43.8223C105.206 44.3247 104.974 44.6781 104.69 44.9377C104.405 45.1978 104.055 45.3769 103.614 45.5093L103.686 45.9987H113.478L113.546 45.5082C113.09 45.3794 112.733 45.2022 112.447 44.9436C112.162 44.6857 111.932 44.3331 111.752 43.8301C111.389 42.8101 111.247 41.2169 111.247 38.6693V13.9268H117.395H117.645V13.6768V12.8067V12.5567H117.395H111.229C111.21 11.2701 111.037 10.4302 110.766 9.71496C110.623 9.33755 110.454 9.00006 110.272 8.65759C110.222 8.56255 110.171 8.46756 110.119 8.37122C109.983 8.11788 109.842 7.85531 109.696 7.55843C109.009 6.12492 109.076 4.49404 109.808 3.22609C110.536 1.96536 111.934 1.0425 113.959 1.0425C115.394 1.0425 116.393 1.4954 117.042 2.31743C117.699 3.15066 118.03 4.40347 118.03 6.06633C118.03 6.70449 118.24 7.18395 118.587 7.49637C118.93 7.80537 119.378 7.92597 119.811 7.90356C120.656 7.85974 121.565 7.24593 121.565 6.21748Z" fill="white" stroke="white" stroke-width="0.5"/>
<path d="M130.827 38.6693V13.9268H136.974H137.224V13.6768V12.8067V12.5567H136.974H130.813C130.793 11.2699 130.62 10.4299 130.347 9.71467C130.203 9.33727 130.034 8.9998 129.852 8.6574C129.803 8.56422 129.753 8.47106 129.702 8.37664C129.565 8.12159 129.423 7.8573 129.276 7.55832C128.586 6.12479 128.652 4.49397 129.385 3.22609C130.112 1.96545 131.511 1.0425 133.539 1.0425C134.971 1.0425 135.97 1.49534 136.62 2.31749C137.278 3.15078 137.609 4.40362 137.609 6.06633C137.609 6.70438 137.819 7.18381 138.165 7.49626C138.508 7.80532 138.956 7.92598 139.388 7.90356C140.233 7.85972 141.141 7.24567 141.141 6.21748C141.141 3.15604 138.222 0.0400391 133.775 0.0400391C131.195 0.0400391 129.113 0.906153 127.678 2.49704C126.246 4.08462 125.484 6.36558 125.484 9.15056V12.5526H122.139H121.889V12.8026V13.6727V13.9227H122.139H125.488V38.6693C125.488 41.2151 125.331 42.8046 124.961 43.8224C124.778 44.3248 124.546 44.6782 124.263 44.9379C123.979 45.1979 123.629 45.3769 123.189 45.5094L123.261 45.9987H133.053L133.121 45.5082C132.667 45.3795 132.311 45.2023 132.025 44.9438C131.74 44.6858 131.51 44.3332 131.331 43.8302C130.968 42.8102 130.827 41.2168 130.827 38.6693Z" fill="white" stroke="white" stroke-width="0.5"/>
<path d="M268.322 2.30081H269.296V39.261C269.281 41.7845 269.11 43.413 268.721 44.4763C268.529 45.0025 268.287 45.3808 267.991 45.6599C267.696 45.9387 267.335 46.1306 266.887 46.2651L266.959 46.7546H277.44L277.512 46.265C277.051 46.1277 276.683 45.9384 276.384 45.662C276.085 45.3859 275.842 45.01 275.65 44.4783C275.262 43.4025 275.099 41.7298 275.099 39.0738V2.30081H276.073C279.338 2.30081 282.664 3.17447 285.181 4.05363C286.438 4.4926 287.489 4.93156 288.226 5.26056C288.595 5.42503 288.884 5.56194 289.081 5.65751C289.18 5.70529 289.255 5.74273 289.306 5.76811L289.363 5.79692L289.377 5.80413L289.38 5.80587L289.381 5.80626L289.381 5.80633L289.746 5.99568V5.5844V1.09082V0.84082H289.496H254.895H254.645V1.09082V5.5844V5.99556L255.01 5.80636L255.01 5.80636L255.01 5.80629L255.011 5.80589L255.014 5.80416L255.028 5.79694L255.085 5.76814C255.136 5.74276 255.211 5.70531 255.31 5.65753C255.507 5.56196 255.796 5.42505 256.165 5.26058C256.902 4.93158 257.955 4.49261 259.212 4.05364C261.73 3.17448 265.057 2.30081 268.322 2.30081Z" fill="white" stroke="white" stroke-width="0.5"/>
<path d="M322.441 46.6401L322.466 46.1473C322.466 46.1413 322.466 46.1413 322.466 46.1414L322.465 46.1411C322.464 46.141 322.462 46.1407 322.46 46.1404C322.456 46.1399 322.452 46.1391 322.446 46.1382C322.427 46.135 322.398 46.1291 322.358 46.1189C322.279 46.0985 322.162 46.061 322.019 45.9934C321.733 45.8587 321.34 45.6027 320.941 45.1181C320.144 44.1489 319.305 42.2383 319.305 38.4896V26.0791C319.305 22.5322 318.428 19.6667 316.563 17.6875C314.696 15.7056 311.877 14.6523 308.08 14.6523C305.165 14.6523 302.484 15.5194 300.324 16.6493C298.165 17.7778 296.509 19.177 295.645 20.2614L295.645 20.2616C294.457 21.7554 294.51 23.0987 295.234 23.9099C295.936 24.6967 297.204 24.8873 298.212 24.2072C299.023 23.6607 299.706 22.8624 300.35 21.9963C300.627 21.6252 300.892 21.2483 301.158 20.8699C301.527 20.3453 301.898 19.8181 302.302 19.3002C303.673 17.5478 305.288 16.1083 307.892 16.1083C309.974 16.1083 311.498 17.0838 312.51 18.5264C313.527 19.977 314.027 21.903 314.027 23.7751V26.3563L313.979 26.3631C313.81 26.3872 313.567 26.4221 313.268 26.4657C312.671 26.553 311.854 26.6748 310.973 26.8131C309.215 27.0888 307.187 27.4327 306.153 27.6998L306.152 27.7C303.477 28.3998 299.976 29.363 297.143 31.053C294.304 32.7463 292.094 35.1971 292.094 38.8736C292.094 41.3483 293.154 43.2981 294.807 44.6238C296.455 45.9453 298.682 46.6401 301.022 46.6401C306.555 46.6401 309.941 44.1782 311.937 41.7106C312.933 40.4798 313.581 39.2499 313.981 38.3276C314.003 38.2779 314.024 38.2291 314.044 38.1812V40.0868C314.044 41.8714 314.546 43.5066 315.513 44.701C316.485 45.9009 317.915 46.6401 319.728 46.6401H322.441ZM303.302 43.0967C301.584 43.0967 300.067 42.5682 298.981 41.57C297.899 40.5747 297.225 39.0923 297.225 37.1374C297.225 33.4748 299.783 31.3143 303.251 29.9521C306.616 28.6303 310.756 28.0965 314.011 27.6768C314.017 27.6761 314.022 27.6754 314.027 27.6747V32.2709C313.997 35.4757 312.932 38.179 311.077 40.0797C309.223 41.9797 306.562 43.0967 303.302 43.0967Z" fill="white" stroke="white" stroke-width="0.5"/>
<path d="M349.476 6.8589V6.85855C349.471 3.80156 346.553 0.685547 342.11 0.685547C339.53 0.685547 337.448 1.55166 336.013 3.14254C334.581 4.73012 333.819 7.01109 333.819 9.79607V13.1981H330.474H330.224V13.4481V14.3182V14.5682H330.474H333.819V39.3066C333.819 41.8525 333.662 43.442 333.292 44.4597C333.109 44.9622 332.877 45.3156 332.594 45.5752C332.31 45.8353 331.96 46.0143 331.52 46.1467L331.592 46.6361H341.384L341.452 46.1455C340.997 46.0167 340.64 45.8395 340.353 45.581C340.068 45.323 339.838 44.9704 339.659 44.4674C339.295 43.4475 339.154 41.8542 339.154 39.3066V14.5682H345.305H345.555V14.3182V13.4481V13.1981H345.305H339.143C339.124 11.9114 338.951 11.0713 338.678 10.3561C338.534 9.9787 338.365 9.64122 338.183 9.29882C338.134 9.20565 338.084 9.11251 338.033 9.0181C337.896 8.76307 337.754 8.49881 337.607 8.19986C336.919 6.76625 336.985 5.1343 337.717 3.86534C338.445 2.60367 339.842 1.67984 341.87 1.67984C343.302 1.67984 344.301 2.13359 344.951 2.95631C345.609 3.79016 345.94 5.04307 345.94 6.70367C345.94 7.34271 346.15 7.82287 346.497 8.13589C346.84 8.44552 347.288 8.56661 347.721 8.54448C348.567 8.50122 349.476 7.88735 349.476 6.8589Z" fill="white" stroke="white" stroke-width="0.5"/>
<path d="M369.051 6.8589V6.85855C369.047 3.80193 366.133 0.685547 361.698 0.685547C359.118 0.685547 357.036 1.55166 355.6 3.14254C354.168 4.73013 353.406 7.01109 353.406 9.79607V13.1981H350.062H349.812V13.4481V14.3182V14.5682H350.062H353.406V39.3066C353.406 41.8525 353.25 43.4419 352.879 44.4596C352.696 44.962 352.464 45.3154 352.18 45.5751C351.895 45.8352 351.544 46.0142 351.104 46.1467L351.176 46.6361H360.968L361.036 46.1455C360.58 46.0167 360.223 45.8395 359.937 45.581C359.651 45.323 359.421 44.9704 359.242 44.4674C358.878 43.4475 358.737 41.8542 358.737 39.3066V14.5682H364.88H365.13V14.3182V13.4481V13.1981H364.88H358.715C358.695 11.9115 358.523 11.0716 358.252 10.3564C358.108 9.97897 357.939 9.64149 357.758 9.29901C357.708 9.20398 357.657 9.109 357.605 9.01267C357.469 8.75933 357.328 8.49674 357.182 8.19986C356.495 6.76637 356.562 5.13443 357.294 3.8654C358.022 2.60361 359.42 1.67984 361.445 1.67984C362.879 1.67984 363.878 2.13365 364.527 2.95624C365.185 3.79004 365.515 5.04292 365.515 6.70367C365.515 7.34271 365.726 7.82287 366.072 8.13589C366.415 8.44552 366.863 8.56661 367.296 8.54448C368.142 8.50122 369.051 7.88735 369.051 6.8589Z" fill="white" stroke="white" stroke-width="0.5"/>
<path d="M213.737 43.4855C215.204 42.7656 216.848 41.5525 218.264 40.3815C219.683 39.2079 220.888 38.0647 221.478 37.4738C222.232 36.7184 223.033 35.9888 223.795 35.2955C223.943 35.1602 224.09 35.0263 224.235 34.8939L225.518 36.1788L225.824 36.4856L225.936 36.0667L228.14 27.8271L228.252 27.4081L227.833 27.5212L219.592 29.7475L219.175 29.8601L219.48 30.1656L220.77 31.4576C220.725 31.5194 220.665 31.5963 220.592 31.6873C220.423 31.8966 220.186 32.1733 219.893 32.498C219.309 33.1471 218.509 33.9827 217.601 34.8455C215.774 36.5809 213.544 38.3915 211.757 39.052C211.646 39.0929 211.381 39.1455 210.993 39.1788C210.611 39.2114 210.131 39.2239 209.6 39.1937C208.536 39.133 207.292 38.9018 206.251 38.3357L206.248 38.3339C205.406 37.8918 204.713 37.2154 204.25 36.386C205.938 33.242 207.185 29.8825 207.951 26.3946L208.123 25.6136L207.537 26.1577L204.779 28.7191L204.719 28.7741L204.704 28.8533C204.243 31.1638 203.661 32.5679 203.203 33.3878C202.974 33.7976 202.776 34.0615 202.639 34.2199C202.63 34.2298 202.622 34.2392 202.614 34.2483L191.629 20.3705C191.631 20.37 191.632 20.3695 191.634 20.369C191.853 20.2912 192.166 20.1733 192.541 20.0122C193.29 19.6902 194.29 19.1937 195.292 18.4959C197.291 17.1037 199.336 14.8799 199.336 11.6142C199.336 10.1078 198.809 8.13181 197.35 6.52954C195.885 4.92051 193.503 3.71289 189.841 3.71289C184.399 3.71289 181.045 6.95161 180.475 10.9746L180.475 10.976C179.95 14.8334 182.024 17.7219 183.617 19.9401C183.827 20.2335 184.029 20.5151 184.216 20.7857C182.808 21.3463 179.452 22.7799 176.763 25.41C175.312 26.8295 174.048 28.6039 173.392 30.7843C172.736 32.9672 172.694 35.5404 173.663 38.5462C174.984 42.6534 179.554 46.7385 186.765 46.7385C191.885 46.7385 195.4 45.2781 197.64 43.8073C198.758 43.0726 199.557 42.3368 200.077 41.7824C200.337 41.5051 200.528 41.2731 200.654 41.1092C200.656 41.1063 200.658 41.1035 200.661 41.1007C203.603 43.9512 209.114 45.7649 213.737 43.4855ZM213.737 43.4855C213.737 43.4856 213.737 43.4857 213.737 43.4857L213.627 43.2613L213.737 43.4855C213.737 43.4855 213.737 43.4855 213.737 43.4855ZM189.939 18.7917C189.897 18.7329 189.852 18.669 189.803 18.6C188.886 17.312 186.728 14.2819 186.728 10.9279C186.724 8.29307 187.968 5.56424 190.596 5.56424C193.317 5.56424 194.321 8.79145 194.321 11.1281C194.321 17.2557 189.939 18.7917 189.939 18.7917ZM189.939 18.7917L190.143 18.6475C190.107 18.5968 190.069 18.5424 190.027 18.4845M189.939 18.7917C189.856 18.5558 189.856 18.5558 189.856 18.5559L189.857 18.5555L189.864 18.5529C189.871 18.5504 189.881 18.5463 189.896 18.5406C189.925 18.5292 189.968 18.5112 190.024 18.4858C190.025 18.4854 190.026 18.4849 190.027 18.4845M190.027 18.4845C190.022 18.4764 190.016 18.4684 190.01 18.4602C189.091 17.1682 186.978 14.1982 186.978 10.9279V10.9276C186.976 9.64459 187.279 8.35335 187.886 7.39153C188.489 6.43749 189.384 5.81424 190.596 5.81424C191.836 5.81424 192.695 6.54152 193.259 7.58835C193.825 8.64135 194.071 9.9888 194.071 11.1281C194.071 14.1251 193.002 15.98 191.949 17.0853C191.42 17.6403 190.892 18.0099 190.498 18.24C190.302 18.3541 190.14 18.4337 190.027 18.4845ZM185.825 22.9021C185.83 22.9002 185.834 22.8984 185.838 22.8966L198.829 39.0177C198.75 39.1034 198.671 39.1915 198.589 39.2815C197.893 40.0495 197.073 40.9546 195.772 41.6878C194.229 42.5569 191.994 43.1892 188.489 42.9791C187.612 42.9261 186.413 42.5168 185.165 41.7705C183.92 41.0267 182.644 39.9592 181.609 38.6123C179.545 35.9267 178.432 32.1292 180.434 27.5314L180.434 27.5313C181.098 26.0033 182.477 24.8275 183.716 24.0269C184.332 23.6287 184.907 23.3283 185.327 23.1275C185.536 23.0272 185.707 22.952 185.825 22.9021Z" fill="white" stroke="white" stroke-width="0.5"/>
<path d="M2.86927 113.333L8.48242 125.849L8.54866 125.997H8.71054H10.0324H10.4135L10.2617 125.647L10.1016 125.279L15.3147 113.603V124.956L14.3779 125.552L13.6537 126.013H14.5121H17.825H18.6834L17.9592 125.552L17.0223 124.956L17.0143 112.193L17.9481 111.617L18.698 111.154H17.8168H15.5484H15.3864L15.3202 111.302L9.56731 124.155L3.81439 111.302L3.7482 111.154H3.5862H1.13828H0.257059L1.00699 111.617L1.94088 112.193V124.956L1.00404 125.552L0.279872 126.013H1.13828H3.67188H4.53028L3.80612 125.552L2.86927 124.956V113.333Z" fill="white" stroke="white" stroke-width="0.5"/>
<path d="M38.7222 126.025H39.5994L38.854 125.563L37.7082 124.852L31.7623 111.312L31.6967 111.162H31.5334H30.2319H29.8508L30.0026 111.512L30.1631 111.881L24.4357 124.92L23.4218 125.573L22.7082 126.033H23.5573H26.0909H26.9532L26.2246 125.572L25.4186 125.062L27.0826 121.258H34.2792L35.9861 125.141L35.2991 125.562L34.5434 126.025H35.4297H38.7222ZM27.4822 120.296L30.6797 113.051L33.8502 120.296H27.4822Z" fill="white" stroke="white" stroke-width="0.5"/>
<path d="M43.137 112.066H46.6931V124.956L45.7563 125.552L45.0321 126.013H45.8905H49.183H50.0274L49.3191 125.553L48.4008 124.957V112.078L51.9531 112.067L53.3589 113.303L54.0122 113.878L53.7635 113.044L53.2495 111.32L53.1962 111.142H53.0099H42.0799H41.8936L41.8403 111.32L41.3263 113.044L41.0776 113.878L41.7309 113.303L43.137 112.066Z" fill="white" stroke="white" stroke-width="0.5"/>
<path d="M66.0122 126.25C67.2193 126.254 68.415 126.015 69.5235 125.541L70.3109 125.624L70.4884 125.643L70.5638 125.481L71.3798 123.728L70.9926 123.431C69.5927 124.603 67.8334 125.256 66.0111 125.276C64.1025 125.276 62.5768 124.519 61.5251 123.31C60.4701 122.096 59.8815 120.414 59.8815 118.553C59.8815 116.693 60.47 115.018 61.5246 113.812C62.5753 112.61 64.0997 111.86 66.0073 111.859C67.4237 111.919 68.7777 112.476 69.8308 113.428L70.4891 114.023L70.2383 113.172L69.7692 111.579L69.7031 111.354L69.4747 111.406L68.8624 111.543C67.9662 111.146 66.9963 110.938 66.0146 110.93V110.93H66.0125C61.6716 110.93 58.1249 114.351 58.1249 118.578C58.1249 122.803 61.6703 126.25 66.0122 126.25ZM66.0122 126.25C66.0123 126.25 66.0124 126.25 66.0125 126.25V126L66.0116 126.25C66.0118 126.25 66.012 126.25 66.0122 126.25Z" fill="white" stroke="white" stroke-width="0.5"/>
<path d="M89.5156 112.192V118.103H79.3752V112.193L80.3091 111.617L81.0591 111.154H80.1778H76.8854H76.0042L76.7541 111.617L77.688 112.193V124.956L76.7511 125.552L76.027 126.013H76.8854H80.1778H81.0362L80.3121 125.552L79.3752 124.956V119.052H89.5156V124.958L88.5973 125.554L87.889 126.013H88.7334H92.0258H92.8842L92.1601 125.552L91.2232 124.956V112.193L92.1571 111.617L92.907 111.154H92.0258H88.7334H87.8667L88.6002 111.616L89.5156 112.192Z" fill="white" stroke="white" stroke-width="0.5"/>
<path d="M109.21 124.064L109.553 123.301L108.847 123.751L106.763 125.08H100.966V118.358H104.634L105.229 119.296L105.69 120.022V119.162V116.629V115.786L105.231 116.493L104.636 117.409H100.966V112.079H106.333L107.718 113.315L108.362 113.89L108.125 113.059L107.631 111.335L107.579 111.154H107.391H98.4761H97.5949L98.3448 111.617L99.2787 112.193V124.968L98.3419 125.565L97.6177 126.026H98.4761H108.166H108.327L108.394 125.878L109.21 124.064Z" fill="white" stroke="white" stroke-width="0.5"/>
<path d="M126.476 124.064L126.822 123.295L126.113 123.752L124.049 125.08H116.809L125.564 111.54L125.814 111.154H125.354H115.363H115.176L115.123 111.333L114.609 113.057L114.36 113.891L115.014 113.316L116.42 112.079H123.17L114.414 125.64L114.165 126.026H114.624H125.432H125.594L125.66 125.878L126.476 124.064Z" fill="white" stroke="white" stroke-width="0.5"/>
<path d="M157.24 112.122L151.988 124.123L146.685 112.036L147.352 111.616L148.084 111.154H147.218H143.926H143.049L143.794 111.617L144.952 112.336L150.878 125.876L150.943 126.026H151.107H152.428H152.818L152.656 125.672L152.478 125.283L158.204 112.245L159.2 111.616L159.93 111.154H159.066H156.533H155.633L156.404 111.618L157.24 112.122Z" fill="white" stroke="white" stroke-width="0.5"/>
<path d="M171.176 126.25C175.517 126.25 179.063 122.807 179.063 118.578C179.063 114.351 175.516 110.93 171.176 110.93C166.835 110.93 163.288 114.351 163.288 118.578C163.288 122.803 166.834 126.25 171.176 126.25ZM171.176 111.883C173.098 111.883 174.625 112.632 175.674 113.833C176.727 115.038 177.311 116.713 177.311 118.578C177.311 120.444 176.722 122.127 175.667 123.339C174.614 124.547 173.087 125.301 171.176 125.301C169.264 125.301 167.738 124.544 166.687 123.334C165.632 122.121 165.045 120.438 165.045 118.578C165.045 116.717 165.627 115.042 166.679 113.836C167.727 112.633 169.253 111.883 171.176 111.883Z" fill="white" stroke="white" stroke-width="0.5"/>
<path d="M185.033 122.725L185.034 122.726L185.037 122.73L185.054 122.75C185.069 122.768 185.093 122.795 185.124 122.829C185.186 122.898 185.279 122.998 185.402 123.118C185.647 123.358 186.008 123.68 186.469 124.001C187.392 124.645 188.703 125.28 190.282 125.28C191.676 125.28 192.646 124.962 193.263 124.447C193.873 123.937 194.173 123.206 194.173 122.299C194.173 121.666 193.779 121.099 193.053 120.575C192.331 120.053 191.323 119.608 190.201 119.218C189.581 119.011 188.394 118.565 187.357 117.821C186.323 117.078 185.393 116.005 185.393 114.541C185.393 113.46 185.943 112.552 186.854 111.925C187.759 111.3 189.021 110.95 190.479 110.949C190.48 110.949 190.481 110.949 190.482 110.949L185.033 122.725ZM185.033 122.725L185.033 122.725L185.033 122.725C185.033 122.725 185.033 122.725 185.033 122.725L184.597 122.944L185.066 124.807L185.11 124.981L185.289 124.995L186.08 125.056C187.341 125.84 188.8 126.246 190.283 126.229C191.879 126.229 193.264 125.821 194.258 125.111C195.256 124.399 195.86 123.38 195.86 122.188C195.86 120.742 195.16 119.787 194.177 119.101C193.254 118.457 192.064 118.039 190.961 117.651C190.911 117.633 190.86 117.616 190.809 117.598L190.809 117.598L190.806 117.597C190.215 117.399 189.236 116.996 188.41 116.437C187.567 115.867 186.97 115.193 186.97 114.472C186.97 113.676 187.242 113.038 187.793 112.593C188.35 112.142 189.225 111.863 190.478 111.862C191.976 111.906 193.408 112.476 194.526 113.474L195.179 114.057L194.932 113.216L194.463 111.623L194.395 111.395L194.164 111.451L193.513 111.609L185.033 122.725Z" fill="white" stroke="white" stroke-width="0.5"/>
<path d="M228.914 126.026H229.788L229.046 125.563L227.892 124.844L221.942 111.304L221.876 111.154H221.713H220.416H220.038L220.186 111.502L220.343 111.873L214.615 124.912L213.605 125.566L212.895 126.026H213.741H216.27H217.133L216.404 125.564L215.599 125.054L217.274 121.258H224.475L226.178 125.141L225.491 125.562L224.735 126.026H225.622H228.914ZM217.674 120.297L220.872 113.051L224.042 120.297H217.674Z" fill="white" stroke="white" stroke-width="0.5"/>
<path d="M236.418 113.306L242.031 125.849L242.097 125.997H242.259H243.581H243.959L243.811 125.649L243.654 125.279L248.843 113.607V124.956L247.906 125.552L247.182 126.013H248.04H251.357H252.216L251.492 125.552L250.555 124.956L250.539 112.193L251.472 111.617L252.222 111.154H251.341H249.077H248.915L248.849 111.302L243.096 124.154L237.347 111.302L237.281 111.154H237.119H234.671H233.789L234.539 111.617L235.473 112.193V124.958L234.555 125.554L233.847 126.013H234.691H237.221H238.079L237.355 125.552L236.418 124.956V113.306Z" fill="white" stroke="white" stroke-width="0.5"/>
<path d="M268.591 121.552L268.579 121.56C268.579 124.231 266.494 125.33 263.12 125.322H260.302V125.072M268.591 121.552C268.591 118.998 266.331 118.165 262.5 118.165H260.302V118.415M268.591 121.552L268.452 121.344L268.44 121.352L268.339 121.419M268.591 121.552H268.573H268.341C268.341 121.507 268.34 121.463 268.339 121.419M260.302 118.415H260.052V125.072H260.302M260.302 118.415V125.072M260.302 118.415H262.5C264.407 118.415 265.88 118.624 266.869 119.124C267.359 119.371 267.723 119.686 267.966 120.077C268.19 120.439 268.321 120.88 268.339 121.419M260.302 125.072H263.12H263.12C264.788 125.076 266.096 124.805 266.979 124.236C267.844 123.678 268.329 122.819 268.329 121.56V121.426L268.339 121.419M257.653 125.565L256.929 126.026H257.787H263.091C265.514 126.026 267.248 125.662 268.382 124.912C269.538 124.148 270.036 123.006 270.036 121.56C270.036 120.315 269.531 119.335 268.564 118.664C267.912 118.212 267.06 117.906 266.03 117.742C266.317 117.63 266.606 117.487 266.879 117.309C267.694 116.775 268.364 115.913 268.364 114.587C268.364 114.021 268.268 113.512 268.048 113.07C267.828 112.625 267.488 112.261 267.024 111.975C266.105 111.411 264.697 111.154 262.716 111.154H257.787H256.906L257.656 111.617L258.59 112.193V124.968L257.653 125.565ZM268.114 114.587C268.114 116.467 266.672 117.324 265.467 117.668L258.84 112.054L258.193 111.654H257.787V111.404L257.919 111.192L258.263 111.404H262.716C266.657 111.404 268.114 112.434 268.114 114.587ZM262.712 117.49H260.273V112.071H262.712C264.39 112.071 265.365 112.297 265.921 112.703C266.452 113.09 266.648 113.68 266.648 114.578C266.648 115.678 266.24 116.385 265.573 116.831C264.889 117.288 263.901 117.49 262.712 117.49Z" fill="white" stroke="white" stroke-width="0.5"/>
<path d="M279.354 126.013H280.212L279.488 125.552L278.551 124.956L278.535 112.193L279.469 111.617L280.218 111.154H279.337H276.073H275.192L275.942 111.617L276.876 112.193V124.956L275.939 125.552L275.215 126.013H276.073H279.354Z" fill="white" stroke="white" stroke-width="0.5"/>
<path d="M286.775 112.066H290.34V124.956L289.403 125.552L288.679 126.013H289.537H292.813H293.658L292.949 125.553L292.031 124.957V112.078L295.588 112.067L296.997 113.303L297.653 113.878L297.402 113.044L296.884 111.32L296.83 111.142H296.644H285.718H285.532L285.479 111.32L284.961 113.044L284.71 113.878L285.365 113.303L286.775 112.066Z" fill="white" stroke="white" stroke-width="0.5"/>
<path d="M306.273 126.013H307.131L306.407 125.552L305.47 124.956L305.462 112.193L306.396 111.617L307.146 111.154H306.265H303.001H302.119L302.869 111.617L303.803 112.193V124.956L302.866 125.552L302.142 126.013H303.001H306.273Z" fill="white" stroke="white" stroke-width="0.5"/>
<path d="M320.405 126.25C324.747 126.25 328.293 122.807 328.293 118.578C328.293 114.351 324.746 110.93 320.405 110.93C316.064 110.93 312.518 114.351 312.518 118.578C312.518 122.803 316.063 126.25 320.405 126.25ZM320.405 111.883C322.328 111.883 323.854 112.632 324.902 113.833C325.954 115.038 326.536 116.713 326.536 118.578C326.536 120.445 325.949 122.127 324.894 123.339C323.843 124.547 322.317 125.301 320.405 125.301C318.494 125.301 316.967 124.544 315.914 123.334C314.859 122.121 314.27 120.438 314.27 118.578C314.27 116.717 314.854 115.042 315.906 113.836C316.956 112.634 318.483 111.883 320.405 111.883Z" fill="white" stroke="white" stroke-width="0.5"/>
<path d="M346.226 112.193V123.04L337.267 111.253L337.192 111.154H337.068H334.538H333.657L334.407 111.617L335.341 112.193V124.956L334.404 125.552L333.68 126.013H334.538H337.068H337.926L337.202 125.552L336.265 124.956V112.762L346.277 125.915L346.352 126.013H346.476H347.953H348.797L348.089 125.554L347.171 124.958L347.179 112.192L348.094 111.616L348.828 111.154H347.961H345.431H344.556L345.299 111.617L346.226 112.193Z" fill="white" stroke="white" stroke-width="0.5"/>
<path d="M354.462 122.725L354.463 122.726L354.467 122.73L354.484 122.75C354.499 122.768 354.522 122.795 354.553 122.829C354.615 122.898 354.708 122.998 354.831 123.118C355.076 123.358 355.437 123.68 355.898 124.001C356.822 124.645 358.133 125.28 359.711 125.28C361.105 125.28 362.075 124.962 362.692 124.447C363.303 123.937 363.602 123.206 363.602 122.299C363.602 121.666 363.208 121.099 362.483 120.575C361.76 120.053 360.753 119.608 359.63 119.218C359.01 119.011 357.824 118.565 356.789 117.821C355.755 117.078 354.826 116.005 354.826 114.541C354.826 113.46 355.375 112.552 356.285 111.925C357.19 111.3 358.451 110.95 359.908 110.949C359.909 110.949 359.91 110.949 359.911 110.949L354.462 122.725ZM354.462 122.725L354.462 122.725L354.462 122.725C354.462 122.725 354.462 122.725 354.462 122.725L354.026 122.944L354.495 124.807L354.539 124.981L354.718 124.995L355.51 125.056C356.77 125.84 358.229 126.246 359.712 126.229C361.308 126.229 362.694 125.821 363.688 125.111C364.686 124.399 365.289 123.38 365.289 122.188C365.289 120.742 364.589 119.787 363.607 119.101C362.685 118.458 361.497 118.04 360.398 117.653C360.346 117.634 360.294 117.616 360.243 117.598L360.243 117.598L360.239 117.597C359.646 117.399 358.666 116.996 357.84 116.437C356.996 115.867 356.399 115.193 356.399 114.472C356.399 113.676 356.672 113.038 357.222 112.593C357.779 112.142 358.655 111.863 359.907 111.862C361.406 111.906 362.837 112.476 363.955 113.474L364.609 114.057L364.361 113.216L363.892 111.623L363.825 111.395L363.593 111.451L362.943 111.609L354.462 122.725Z" fill="white" stroke="white" stroke-width="0.5"/>
<path d="M208.486 67.0454L208.486 67.0457C208.515 67.0277 208.536 67.0125 208.554 66.9994C208.557 66.9976 208.56 66.9956 208.563 66.9933C208.577 66.9828 208.598 66.9679 208.615 66.957C208.637 66.9431 208.687 66.9129 208.756 66.9061C208.832 66.8987 208.891 66.9222 208.924 66.9391C209.057 67.0056 209.074 67.1368 209.07 67.1979C209.066 67.2531 209.047 67.2988 209.036 67.3227C209.012 67.3764 208.974 67.4353 208.933 67.4916C208.85 67.6083 208.722 67.7647 208.563 67.9488C208.35 68.208 208.065 68.5223 207.739 68.8726C207.739 68.8727 207.739 68.8727 207.739 68.8728L207.556 68.7027C205.865 70.5337 202.992 73.4406 202.053 74.3547L208.486 67.0454ZM208.486 67.0454L208.475 67.0536C208.337 67.1526 208.144 67.304 207.909 67.5025L207.909 67.5026C207.112 68.1744 205.785 69.393 204.422 70.6451C203.443 71.5449 202.444 72.4619 201.61 73.2057M208.486 67.0454L201.61 73.2057M201.61 73.2057C201.593 73.1768 201.576 73.1481 201.559 73.1196C202.101 72.5583 202.726 71.9172 203.371 71.2568C203.413 71.2135 203.455 71.1701 203.498 71.1267C204.241 70.3652 205.003 69.5837 205.684 68.8755C206.364 68.1677 206.966 67.5309 207.388 67.0594C207.598 66.8244 207.768 66.6261 207.881 66.479C207.936 66.4068 207.984 66.3385 208.016 66.2802C208.031 66.2527 208.051 66.2134 208.062 66.1689C208.069 66.1427 208.099 66.0131 207.998 65.9071C207.906 65.8113 207.79 65.8234 207.756 65.8286C207.712 65.8355 207.674 65.8513 207.649 65.8626C207.597 65.8867 207.539 65.923 207.48 65.9628C207.36 66.0445 207.2 66.1684 207.01 66.3229C206.63 66.6334 206.111 67.0836 205.521 67.6091L204.681 68.356C204.681 68.3561 204.681 68.3562 204.681 68.3563C204.016 68.9436 203.311 69.5814 202.626 70.2014C201.94 70.822 201.273 71.4249 200.687 71.9413C200.664 71.918 200.641 71.8949 200.617 71.872C201.3 71.1676 202.13 70.3306 202.962 69.4911C204.387 68.0537 205.819 66.6089 206.534 65.8099C206.697 65.6288 206.827 65.4749 206.914 65.3589C206.956 65.3024 206.995 65.2453 207.021 65.1935C207.033 65.1691 207.051 65.1308 207.059 65.0855C207.066 65.0488 207.079 64.9344 206.986 64.8413C206.9 64.7546 206.792 64.7504 206.723 64.7643C206.665 64.7759 206.616 64.8025 206.587 64.8192C206.542 64.8453 206.485 64.8854 206.427 64.9261C206.409 64.9386 206.391 64.9512 206.373 64.9635L206.373 64.9634L206.371 64.9653C205.823 65.3547 204.627 66.3869 203.297 67.5581C202.666 68.1137 202.004 68.7014 201.362 69.272C200.698 69.8617 200.054 70.4332 199.487 70.9322C199.459 70.9139 199.431 70.8958 199.403 70.8779C200.212 70.0491 201.206 69.0609 202.174 68.0979C202.646 67.6284 203.112 67.1648 203.548 66.7286C204.253 66.0234 204.879 65.3893 205.319 64.9201C205.539 64.6862 205.716 64.4893 205.835 64.3434C205.894 64.2718 205.944 64.2049 205.979 64.1482C205.995 64.1215 206.015 64.0841 206.029 64.0421C206.035 64.0211 206.044 63.9864 206.043 63.9442C206.042 63.9 206.029 63.8335 205.977 63.7743C205.907 63.6949 205.817 63.6852 205.776 63.6856C205.733 63.6859 205.698 63.6961 205.679 63.7025C205.638 63.716 205.599 63.7368 205.568 63.7548C205.502 63.7929 205.419 63.8502 205.324 63.9196C205.133 64.0601 204.869 64.2693 204.558 64.526C203.933 65.0402 203.1 65.7555 202.227 66.5189C200.481 68.0454 198.565 69.7718 197.813 70.4817L197.813 70.4817L197.812 70.4829C197.147 71.1188 196.752 71.7701 196.632 72.4293C196.51 73.0939 196.673 73.7339 197.061 74.3294L197.061 74.3294L197.062 74.3316L197.078 74.3544V74.4017L197.145 74.4737L197.369 74.7147L197.369 74.7147L197.371 74.717L197.91 75.2808L197.92 75.2918L197.932 75.3015L197.937 75.3056C198.023 75.3757 198.122 75.4569 198.232 75.5262C198.766 75.8832 199.339 76.0516 199.967 75.9443C200.578 75.8399 201.207 75.4798 201.88 74.852L201.61 73.2057ZM208.582 67.1151C208.581 67.1154 208.581 67.1157 208.581 67.116L208.582 67.1137C208.582 67.1138 208.582 67.1143 208.582 67.1151ZM199.146 73.8921C199.182 73.9755 199.219 74.0582 199.256 74.1405C199.154 74.0543 199.052 73.9665 198.952 73.8771L198.695 73.6395L198.584 73.533C198.062 72.9539 197.976 72.5487 198.015 72.2841C198.042 72.0962 198.137 71.941 198.254 71.8129C198.482 72.4013 198.736 73.0001 199.005 73.5923C199.049 73.6931 199.095 73.7938 199.146 73.8921Z" fill="white" stroke="white" stroke-width="0.5"/>
<path d="M198.523 73.8212L198.784 74.0623C199.016 74.269 199.254 74.4678 199.499 74.6576C199.574 74.8093 199.649 74.9588 199.725 75.105L199.947 74.9896L200.091 74.7855C199.958 74.6915 199.827 74.5947 199.698 74.4954C199.585 74.263 199.474 74.0258 199.368 73.7886C199.319 73.6946 199.274 73.5966 199.229 73.4944L198.523 73.8212ZM198.523 73.8212L198.405 73.7069L198.523 73.8212ZM198.59 71.3034L198.471 70.985L198.203 71.1929L198.113 71.2623L198.113 71.2623L198.108 71.2667C197.89 71.4453 197.587 71.7515 197.52 72.2119C197.452 72.6807 197.637 73.2315 198.219 73.8747L198.225 73.8808L198.231 73.8866L198.349 74.001L198.349 74.001L198.353 74.005L198.615 74.246L198.615 74.246L198.618 74.2489C198.996 74.5856 199.39 74.9019 199.802 75.1936L200.169 74.8741C199.971 74.4951 199.778 74.091 199.596 73.6861L199.593 73.6795L199.589 73.673C199.544 73.5864 199.502 73.4942 199.458 73.3939L199.458 73.3939L199.457 73.3913C199.14 72.6928 198.845 71.9874 198.59 71.3034Z" fill="white" stroke="white" stroke-width="0.5"/>
<path d="M198.546 75.5018L198.764 75.3324L198.574 75.1324L197.476 73.9763L197.285 73.7748L197.105 73.9862C196.932 74.1892 196.332 74.7688 195.474 75.5719C194.622 76.3688 193.531 77.3722 192.388 78.4139C190.104 80.4965 187.62 82.7292 186.446 83.7639C184.63 85.3205 182.694 87.0499 181.326 88.5276C180.643 89.2647 180.09 89.9516 179.766 90.531C179.604 90.82 179.49 91.0981 179.453 91.3529C179.415 91.6127 179.456 91.8689 179.631 92.0731L179.639 92.0828L179.649 92.0916C179.844 92.2769 180.097 92.3309 180.358 92.3063C180.614 92.282 180.897 92.1817 181.193 92.0341C181.786 91.7384 182.496 91.2192 183.263 90.5732C184.799 89.2783 186.615 87.4286 188.255 85.6905C189.352 84.5712 191.705 82.1947 193.896 80.0104C194.993 78.9176 196.048 77.8736 196.885 77.0593C197.728 76.2388 198.335 75.6657 198.546 75.5018ZM182.951 89.224L182.951 89.224L182.946 89.228C182.617 89.5372 182.268 89.826 181.902 90.0922C182.126 89.8551 182.39 89.5807 182.701 89.259C182.748 89.2104 182.796 89.1607 182.844 89.1099L182.845 89.1099L182.847 89.1072C184.032 87.8397 185.315 86.6698 186.684 85.6067C186.257 86.025 185.856 86.4208 185.479 86.7934C184.493 87.7666 183.668 88.5814 182.951 89.224Z" fill="white" stroke="white" stroke-width="0.5"/>
<path d="M189.237 79.0221L189.061 79.1995L189.207 79.3447L189.378 79.2289C189.783 78.9537 190.185 78.8611 190.577 78.8987C190.974 78.9367 191.378 79.1102 191.776 79.3965L191.778 79.398C191.875 79.4668 191.971 79.5435 192.064 79.6254C192.347 79.9365 192.644 80.2669 192.946 80.609L192.948 80.6108C194.051 81.8386 195.261 83.2092 196.251 84.3317C196.577 84.7016 196.88 85.0445 197.147 85.3465C198.701 87.1617 200.425 89.111 201.897 90.4901C202.631 91.178 203.315 91.7363 203.893 92.0631C204.18 92.2261 204.458 92.3411 204.713 92.3775C204.973 92.4147 205.229 92.3712 205.432 92.1919L205.441 92.184L205.45 92.1752C205.633 91.9792 205.682 91.7253 205.654 91.4657C205.627 91.2108 205.523 90.9292 205.373 90.6344C205.072 90.0432 204.547 89.3337 203.897 88.5674C202.592 87.0317 200.736 85.2165 198.998 83.5767C198.204 82.7946 196.591 81.1933 195.254 79.8658C194.977 79.5912 194.713 79.3283 194.469 79.0868C193.949 78.5572 193.524 78.1325 193.298 77.9102L193.129 77.7364L193.129 77.7364L192.963 77.566L192.65 77.2364L192.65 77.2362L190.471 74.9445L190.471 74.9445L190.467 74.9401L190.061 74.5338L179.563 63.4792C179.561 63.4769 179.559 63.4747 179.557 63.4725C179.524 63.4372 179.49 63.4 179.458 63.369C179.424 63.3368 179.377 63.295 179.319 63.2656C179.252 63.2321 179.168 63.2139 179.076 63.2366C178.994 63.2569 178.931 63.3038 178.888 63.3443L178.873 63.358L178.861 63.3738C178.673 63.6149 178.561 63.9002 178.536 64.2043C178.49 64.5733 178.489 64.9426 178.534 65.3116C178.534 65.3937 178.535 65.5094 178.579 65.633C178.701 66.2948 179.068 67.0947 179.577 67.9569C180.096 68.8346 180.774 69.7979 181.527 70.7776C183.033 72.7368 184.851 74.7773 186.324 76.3564C186.489 76.5378 186.654 76.711 186.813 76.878L186.824 76.8896C186.824 76.8897 186.824 76.8898 186.824 76.8899C187.478 77.5836 188.037 78.1606 188.432 78.5644C188.63 78.7663 188.787 78.9249 188.895 79.0331C188.949 79.0872 188.99 79.1288 189.018 79.1568L189.05 79.1886L189.058 79.1967L189.06 79.1988L189.061 79.1993L189.061 79.1995L189.061 79.1995L189.237 79.0221ZM188.674 76.6873L188.674 76.6872L188.671 76.6837C187.609 75.5796 186.465 74.3327 185.362 73.0653L185.362 73.0649C185.106 72.7719 184.854 72.4789 184.606 72.1859C183.556 70.939 182.58 69.7053 181.803 68.6012C181.474 68.135 181.184 67.6951 180.939 67.2894L187.599 74.2752L187.6 74.2762L188.084 74.7899L188.085 74.7903L190.527 77.3691C190.155 77.3448 189.781 77.3765 189.415 77.4649L189.079 77.1254L188.674 76.6873ZM203.469 90.2071C203.052 89.8823 202.66 89.5277 202.294 89.144L202.294 89.1439L202.287 89.1369C202.103 88.9586 201.908 88.7739 201.703 88.5804C200.732 87.6618 199.552 86.5449 198.356 84.9684C199.833 86.1889 201.201 87.5347 202.445 88.9965L202.45 89.0021L202.455 89.0074C202.818 89.3862 203.157 89.7868 203.469 90.2071Z" fill="white" stroke="white" stroke-width="0.5"/>
<path d="M191.143 77.9748L191.924 78.1989L191.404 77.5745L191.343 77.501L191.337 77.4945L191.332 77.4884L190.985 77.1255L190.985 77.1248L188.448 74.446L188.448 74.4457L187.963 73.9313L187.962 73.9304L180.179 65.7663L180.164 65.7482L179.736 65.9909C180.007 66.7649 180.609 67.7731 181.394 68.8882C182.182 70.0083 183.168 71.2542 184.224 72.5073L184.224 72.5078C184.474 72.8028 184.727 73.0979 184.985 73.3929C186.093 74.6657 187.241 75.9181 188.309 77.0277L188.715 77.4671L188.715 77.4672L188.722 77.4741L189.158 77.9112L189.262 78.0155L189.404 77.9748C189.971 77.8121 190.576 77.8121 191.143 77.9748Z" fill="white" stroke="white" stroke-width="0.5"/>
<path d="M193.129 68.9702L192.875 68.9691L188.287 68.9487C188.286 68.9487 188.286 68.9487 188.286 68.9487L188.285 68.9487L188.287 68.6987C187.985 68.6987 187.74 68.4617 187.728 68.1594L193.129 68.9702ZM193.129 68.9702L193.126 68.717L193.061 61.0574L193.059 60.8096H192.811H192.787H192.578L192.541 61.0149C192.529 61.0811 192.527 61.1446 192.537 61.2101M193.129 68.9702L192.537 61.2101M192.537 61.2101V63.4575V63.4849L192.543 63.5117C192.543 63.5127 192.543 63.5129 192.543 63.5127C192.543 63.5124 192.543 63.5126 192.543 63.5136C192.541 63.5195 192.538 63.5248 192.532 63.5287C192.526 63.5326 192.52 63.5333 192.515 63.5321L192.488 63.5261H192.46H188.242C188.142 63.5261 188.041 63.5361 187.949 63.5737C187.847 63.6149 187.771 63.6835 187.719 63.7733C187.617 63.9476 187.559 64.1458 187.559 64.3521C187.559 64.4684 187.58 64.5815 187.614 64.6866C187.67 64.9056 187.854 65.0639 188.072 65.0939L188.231 65.1179C188.385 65.1435 188.545 65.1616 188.713 65.1618M192.537 61.2101L188.207 67.3426C188.204 67.3429 188.2 67.3432 188.197 67.3436C188.35 67.3179 188.509 67.3047 188.669 67.3089M188.713 65.1618C188.712 65.1618 188.711 65.1618 188.711 65.1618L188.715 64.9118V65.1618C188.714 65.1618 188.713 65.1618 188.713 65.1618ZM188.713 65.1618C188.75 65.1626 188.771 65.1684 188.779 65.1717C188.78 65.1722 188.781 65.1726 188.782 65.173M188.782 65.173C188.784 65.178 188.787 65.1902 188.787 65.2141V65.2343L188.79 65.2543C188.805 65.3461 188.821 65.4341 188.842 65.509C188.865 65.5869 188.901 65.6703 188.968 65.7428C189.036 65.8158 189.117 65.8575 189.197 65.8855C189.274 65.9123 189.363 65.9314 189.459 65.9498L189.483 65.9543H189.506H189.516M188.782 65.173C188.784 65.1739 188.785 65.1744 188.785 65.1744C188.785 65.1744 188.784 65.1738 188.783 65.1723C188.781 65.171 188.781 65.1702 188.781 65.1701C188.781 65.1701 188.781 65.171 188.782 65.173ZM189.516 65.9543C189.527 65.9566 189.538 65.9589 189.548 65.961L189.549 65.9612C189.561 65.9638 189.573 65.9663 189.584 65.9688M189.516 65.9543H189.543V65.7043M189.516 65.9543C189.513 65.9536 189.51 65.9529 189.506 65.9522C189.501 65.9509 189.495 65.9496 189.489 65.9483L189.506 65.8693L189.543 65.7043M189.584 65.9688C189.699 66.0175 189.776 66.1292 189.779 66.2582M189.584 65.9688C189.591 65.9701 189.597 65.9715 189.603 65.9728L189.657 65.7288M189.584 65.9688C189.58 65.9668 189.575 65.965 189.57 65.9632L189.657 65.7288M189.779 66.2582V66.2703M189.779 66.2582C189.779 66.2589 189.779 66.2595 189.779 66.2601L190.029 66.2558M189.779 66.2582V66.2558H190.029M189.779 66.2703C189.766 66.363 189.691 66.4352 189.597 66.444L189.575 66.4461L189.554 66.452C189.489 66.4701 189.436 66.4797 189.392 66.4797V66.4796L189.385 66.4798C189.272 66.4829 189.154 66.513 189.053 66.5978C188.957 66.6785 188.901 66.7872 188.865 66.8958L188.865 66.8957L188.862 66.9074C188.828 67.0278 188.808 67.1527 188.808 67.2852V67.2853V67.2854V67.2854V67.2855V67.2856V67.2857V67.2857V67.2858V67.2859V67.2859V67.286V67.2861V67.2862V67.2862V67.2863V67.2864V67.2864V67.2865V67.2866V67.2867V67.2867V67.2868V67.2869V67.2869V67.287V67.2871V67.2872V67.2872V67.2873V67.2874V67.2875V67.2875V67.2876V67.2877V67.2877V67.2878V67.2879V67.288V67.288V67.2881V67.2882V67.2882V67.2883V67.2884V67.2885V67.2885V67.2886V67.2887V67.2887V67.2888V67.2889V67.289V67.289V67.2891V67.2892V67.2892V67.2893V67.2894V67.2895V67.2895V67.2896V67.2897V67.2897V67.2898V67.2899V67.29V67.29V67.2901V67.2902V67.2903V67.2903V67.2904V67.2905V67.2905V67.2906V67.2907V67.2908V67.2908V67.2909V67.291V67.291V67.2911V67.2912V67.2913V67.2913V67.2914V67.2915V67.2915V67.2916V67.2917V67.2918V67.2918V67.2919V67.292V67.292V67.2921V67.2922V67.2923V67.2923V67.2924V67.2925V67.2925V67.2926V67.2927V67.2928V67.2928V67.2929V67.293V67.2931V67.2931V67.2932V67.2933V67.2933V67.2934V67.2935V67.2936V67.2936V67.2937V67.2938V67.2938V67.2939V67.294V67.2941V67.2941V67.2942V67.2943V67.2943V67.2944V67.2945V67.2946V67.2946V67.2947V67.2948V67.2948V67.2949V67.295V67.2951V67.2951V67.2952V67.2953V67.2953V67.2954V67.2955V67.2956V67.2956V67.2957V67.2958V67.2959V67.2959V67.296V67.2961V67.2961V67.2962V67.2963V67.2964V67.2964V67.2965V67.2966V67.2966V67.2967V67.2968V67.2969V67.2969V67.297V67.2971V67.2971V67.2972V67.2973V67.2974V67.2974V67.2975V67.2976V67.2976V67.2977V67.2978V67.2979V67.2979V67.298V67.2981V67.2981V67.2982V67.2983V67.2984V67.2984V67.2985V67.2986V67.2987V67.2987V67.2988V67.2989V67.2989V67.299V67.2991V67.2992V67.2992V67.2993V67.2994V67.2994V67.2995V67.2996V67.2997V67.2997V67.2998V67.2999V67.2999V67.3V67.3001V67.3002V67.3002V67.3003V67.3004V67.3004V67.3005V67.3006V67.3007V67.3007V67.3008V67.3009V67.3009V67.301V67.3011V67.3012V67.3012V67.3013V67.3014V67.3015V67.3015V67.3016V67.3017V67.3017V67.3018V67.3019V67.302V67.302V67.3021V67.3022V67.3022V67.3023V67.3024V67.3025V67.3025V67.3026V67.3027V67.3027V67.3028V67.3029V67.303V67.303V67.3031V67.3032V67.3032V67.3033V67.3034V67.3035V67.3035V67.3036V67.3037V67.3038V67.3038V67.3039V67.304V67.304V67.3041V67.3042V67.3043V67.3043V67.3044V67.3045V67.3045V67.3046V67.3047V67.3048V67.3048V67.3049V67.305V67.305V67.3051V67.3052V67.3053V67.3053V67.3054V67.3055V67.3055V67.3056V67.3057V67.3058V67.3058V67.3059V67.306V67.306V67.3061V67.3062V67.3063V67.3063V67.3064V67.3065V67.3066V67.3066V67.3067V67.3068V67.3068V67.3069V67.307V67.3071V67.3071V67.3072V67.3073V67.3073V67.3074V67.3075V67.3076V67.3076V67.3077V67.3078V67.3078V67.3079V67.308V67.3081V67.3081V67.3082V67.3083V67.3083V67.3084V67.3085V67.3086V67.3086V67.3087V67.3088V67.3088V67.3089V67.309V67.3091V67.3091V67.3091M189.779 66.2703V66.2844H190.029M189.779 66.2703C189.779 66.2672 189.779 66.2641 189.78 66.2609L190.029 66.2844M188.808 67.3091L188.804 67.3089H188.797H188.669M188.808 67.3091V67.3092V67.3093V67.3094V67.3094V67.3095V67.3096V67.3096V67.3097V67.3098V67.3099V67.3099V67.31V67.3101V67.3101L188.808 67.3092L188.808 67.3091ZM188.669 67.3089H188.666V67.5589M188.669 67.3089C188.671 67.309 188.672 67.309 188.673 67.309L188.666 67.5589M188.666 67.5589H188.797C188.935 67.5671 189.049 67.4609 189.058 67.322L188.666 67.5589ZM190.029 66.2844V66.2558M190.029 66.2844L189.037 65.2141C189.098 65.5899 189.123 65.6308 189.506 65.7043H189.543M190.029 66.2558C190.025 66.0188 189.878 65.8105 189.657 65.7288M189.657 65.7288C189.639 65.7247 189.62 65.7206 189.6 65.7166C189.581 65.7125 189.561 65.7084 189.543 65.7043" fill="white" stroke="white" stroke-width="0.5"/>
<path d="M192.541 78.3712C192.573 80.777 192.604 83.1825 192.632 85.588C192.625 85.5942 192.617 85.601 192.609 85.6084C192.534 85.6823 192.522 85.7711 192.52 85.8138C192.52 85.8235 192.52 85.8327 192.52 85.841C192.182 85.8662 191.892 86.0971 191.789 86.4218L191.787 86.4292L191.785 86.4367C191.764 86.523 191.753 86.6128 191.753 86.7015C191.753 86.9737 191.875 87.2426 192.106 87.4121C192.196 87.4811 192.294 87.5351 192.397 87.5748C192.332 87.7704 192.179 87.9289 191.977 88.0018C191.902 88.0279 191.826 88.0507 191.745 88.0752C191.725 88.0811 191.705 88.0871 191.685 88.0932C191.584 88.1238 191.476 88.1577 191.371 88.2003C190.705 88.4462 190.108 88.8418 189.619 89.3523C188.266 90.6706 188.118 92.7957 189.267 94.2917C189.766 94.9552 190.438 95.4771 191.209 95.7925C191.434 95.8902 191.633 96.0436 191.786 96.2392L191.787 96.2395C192.077 96.6081 192.431 96.9246 192.829 97.1721C193.313 97.5063 193.961 97.4673 194.398 97.0713C194.633 96.8816 194.858 96.6736 195.063 96.4429L195.063 96.443L195.069 96.4358C195.291 96.1653 195.575 95.9541 195.898 95.8231C196.479 95.5986 197.005 95.2495 197.434 94.7964C198.666 93.662 198.962 91.8336 198.155 90.3646L198.157 90.3636C197.577 89.2639 196.561 88.4588 195.364 88.1428L195.363 88.1426C195.196 88.0991 195.039 88.0382 194.889 87.9567C194.759 87.8732 194.667 87.7462 194.626 87.6005C194.703 87.5676 194.779 87.527 194.851 87.476C195.124 87.3174 195.298 87.0296 195.309 86.7101L195.309 86.7013L195.309 86.6926C195.298 86.3806 195.128 86.0936 194.864 85.9315C194.779 85.8745 194.686 85.8305 194.589 85.8006C194.572 84.0812 194.555 82.3557 194.538 80.6305C194.521 78.819 194.503 77.0079 194.485 75.2048V61.3618C194.485 61.0809 194.469 60.8166 194.313 60.6215C194.156 60.4235 193.902 60.3535 193.627 60.2995C193.481 60.2703 193.334 60.2658 193.198 60.2744C192.842 60.2792 192.551 60.566 192.545 60.9242L192.545 60.9242V60.9287V60.9288V60.9289V60.929V60.9291V60.9292V60.9293V60.9294V60.9295V60.9296V60.9297V60.9298V60.9299V60.93V60.9301V60.9302V60.9303V60.9304V60.9305V60.9306V60.9306V60.9307V60.9308V60.9309V60.931V60.9311V60.9312V60.9313V60.9314V60.9315V60.9316V60.9317V60.9318V60.9319V60.932V60.932V60.9321V60.9322V60.9323V60.9324V60.9325V60.9326V60.9327V60.9328V60.9329V60.933V60.9331V60.9331V60.9332V60.9333V60.9334V60.9335V60.9336V60.9337V60.9338V60.9339V60.934V60.9341V60.9342V60.9342V60.9343V60.9344V60.9345V60.9346V60.9347V60.9348V60.9349V60.935V60.9351V60.9351V60.9352V60.9353V60.9354V60.9355V60.9356V60.9357V60.9358V60.9359V60.9359V60.936V60.9361V60.9362V60.9363V60.9364V60.9365V60.9366V60.9367V60.9367V60.9368V60.9369V60.937V60.9371V60.9372V60.9373V60.9374V60.9374V60.9375V60.9376V60.9377V60.9378V60.9379V60.938V60.9381V60.9381V60.9382V60.9383V60.9384V60.9385V60.9386V60.9387V60.9388V60.9388V60.9389V60.939V60.9391V60.9392V60.9393V60.9394V60.9394V60.9395V60.9396V60.9397V60.9398V60.9399V60.94V60.94V60.9401V60.9402V60.9403V60.9404V60.9405V60.9406V60.9406V60.9407V60.9408V60.9409V60.941V60.9411V60.9412V60.9412V60.9413V60.9414V60.9415V60.9416V60.9417V60.9417V60.9418V60.9419V60.942V60.9421V60.9422V60.9422V60.9423V60.9424V60.9425V60.9426V60.9427V60.9427V60.9428V60.9429V60.943V60.9431V60.9432V60.9432V60.9433V60.9434V60.9435V60.9436V60.9437V60.9437V60.9438V60.9439V60.944V60.9441V60.9442V60.9442V60.9443V60.9444V60.9445V60.9446V60.9446V60.9447V60.9448V60.9449V60.945V60.9451V60.9451V60.9452V60.9453V60.9454V60.9455V60.9455V60.9456V60.9457V60.9458V60.9459V60.9459V60.946V60.9461V60.9462V60.9463V60.9464V60.9464V60.9465V60.9466V60.9467V60.9468V60.9468V60.9469V60.947V60.9471V60.9472V60.9472V60.9473V60.9474V60.9475V60.9476V60.9476V60.9477V60.9478V60.9479V60.948V60.948V60.9481V60.9482V60.9483V60.9484V60.9484V60.9485V60.9486V60.9487V60.9487V60.9488V60.9489V60.949V60.9491V60.9491V60.9492V60.9493V60.9494V60.9495V60.9495V60.9496V60.9497V60.9498V60.9498V60.9499V60.95V60.9501V60.9502V60.9502V60.9503V60.9504V60.9505V60.9506V60.9506V60.9507V60.9508V60.9509V60.9509V60.951V60.9511V60.9512V60.9513V60.9513V60.9514V60.9515V60.9516V60.9516V60.9517V60.9518V60.9519V60.9519V60.952V60.9521V60.9522V60.9523V60.9523V60.9524V60.9525V60.9526V60.9526V60.9527V60.9528V60.9529V60.9529V60.953V60.9531V60.9532V60.9533V60.9533V60.9534V60.9535V60.9536V60.9536V60.9537V60.9538V60.9539V60.9539V60.954V60.9541V60.9542V60.9542V60.9543V60.9544V60.9545V60.9545V60.9546V60.9547V60.9548V60.9548V60.9549V60.955V60.9551V60.9551V60.9552V60.9553V60.9554V60.9554V60.9555V60.9556V60.9557V60.9557V60.9558V60.9559V60.956V60.9561V60.9561V60.9562V60.9563V60.9563V60.9564V60.9565V60.9566V60.9566V60.9567V60.9568V60.9569V60.9569V60.957V60.9571V60.9572V60.9572V60.9573V60.9574V60.9575V60.9575V60.9576V60.9577V60.9578V60.9578V60.9579V60.958V60.9581V60.9581V60.9582V60.9583V60.9584V60.9584V60.9585V60.9586V60.9587V60.9587V60.9588V60.9589V60.959V60.959V60.9591V60.9592V60.9592V60.9593V60.9594V60.9595V60.9595V60.9596V60.9597V60.9598V60.9598V60.9599V60.96V60.9601V60.9601V60.9602V60.9603V60.9603V60.9604V60.9605V60.9606V60.9606V60.9607V60.9608V60.9609V60.9609V60.961V60.9611V60.9612V60.9612V60.9613V60.9614V60.9614V60.9615V60.9616V60.9617V60.9617V60.9618V60.9619V60.962V60.962V60.9621V60.9622V60.9622V60.9623V60.9624V60.9625V60.9625V60.9626V60.9627V60.9628V60.9628V60.9629V60.963V60.963V60.9631V60.9632V60.9633V60.9633V60.9634V60.9635V60.9636V60.9636V60.9637V60.9638V60.9638V60.9639V60.964V60.9641V60.9641V60.9642V60.9643V60.9643V60.9644V60.9645V60.9646V60.9646V60.9647V60.9648V60.9649V60.9649V60.965V60.9651V60.9651V60.9652V60.9653V60.9654V60.9654V60.9655V60.9656V60.9656V60.9657V60.9658V60.9659V60.9659V60.966V60.9661V60.9662V60.9662V60.9663V60.9664V60.9664V60.9665V60.9666V60.9667V60.9667V60.9668V60.9669V60.9669V60.967V60.9671V60.9672V60.9672V60.9673V60.9674V60.9674V60.9675V60.9676V60.9677V60.9677V60.9678V60.9679V60.968V60.968V60.9681V60.9682V60.9682V60.9683V60.9684V60.9685V60.9685V60.9686V60.9687V60.9687V60.9688V60.9689V60.969V60.969V60.9691V60.9692V60.9692V60.9693V60.9694V60.9695V60.9695V60.9696L192.508 72.0638V72.0647V75.6228C192.508 76.2784 192.519 76.935 192.529 77.5894C192.533 77.8504 192.537 78.1111 192.541 78.3712ZM192.541 78.3712L192.791 78.3679M192.541 78.3712L192.791 78.3679M192.791 78.3679C192.787 78.1064 192.783 77.8449 192.779 77.5833C192.769 76.9298 192.758 76.2763 192.758 75.6228V72.0647L192.882 85.5201C192.854 83.136 192.822 80.752 192.791 78.3679ZM191.285 93.3397C191.958 93.977 192.856 94.3201 193.782 94.2915C194.035 94.2834 194.284 94.2589 194.533 94.2139C194.946 94.1398 195.338 93.9794 195.683 93.745M191.285 93.3397L195.683 93.745M191.285 93.3397C190.531 92.6902 190.445 91.5545 191.094 90.7988L191.285 93.3397ZM195.683 93.745C195.793 93.6702 195.898 93.588 195.998 93.4986C195.998 93.4981 195.999 93.4975 195.999 93.497L195.998 93.495V93.4904M195.683 93.745H195.339L195.724 93.4034C195.761 93.3733 195.798 93.3422 195.833 93.31C195.834 93.3098 195.834 93.3096 195.834 93.3093L195.998 93.4904M195.998 93.4904L196 93.4929C196 93.4924 196.001 93.4919 196.002 93.4913C196.086 93.4157 196.163 93.3332 196.232 93.245H196.002H195.998V93.4904ZM196.255 91.5641C196.338 91.7299 196.38 91.9192 196.38 92.1123L193.774 94.0417C192.915 94.0682 192.082 93.7499 191.457 93.1582L191.457 93.158L191.448 93.1502C190.798 92.5907 190.724 91.6127 191.283 90.9616C191.392 90.8349 191.526 90.7223 191.669 90.6387L191.678 90.6333L191.687 90.6272C192.104 90.3323 192.592 90.1563 193.098 90.1174H193.162H193.171L193.181 90.1167C193.441 90.0973 193.697 90.0972 193.957 90.1166C194.618 90.1775 195.241 90.4421 195.744 90.873C195.958 91.0625 196.132 91.2953 196.252 91.5565L196.252 91.5565L196.255 91.5641Z" fill="white" stroke="white" stroke-width="0.5"/>
<path d="M371.25 77.4492V77.1992H371H219.192H218.942V77.4492V78.0661V78.3161H219.192H371H371.25V78.0661V77.4492Z" fill="white" stroke="white" stroke-width="0.5"/>
<path d="M162.915 77.4492V77.1992H162.665H1.13013H0.880127V77.4492V78.0661V78.3161H1.13013H162.665H162.915V78.0661V77.4492Z" fill="white" stroke="white" stroke-width="0.5"/>
</g>
<defs>
<clipPath id="clip0_272_549">
<rect width="371" height="126" fill="white"/>
</clipPath>
</defs>
</svg>
